<?xml version="1.0" encoding="utf-8"?>
<!-- Generator: Adobe Illustrator 19.1.0, SVG Export Plug-In . SVG Version: 6.00 Build 0)  -->
<svg version="1.1" id="Layer_1" xmlns="http://www.w3.org/2000/svg" xmlns:xlink="http://www.w3.org/1999/xlink" x="0px" y="0px"
	 viewBox="0 0 64 64" enable-background="new 0 0 64 64" xml:space="preserve">
<g id="Baloon_2_">
	<path d="M47,16.8838005C47,7.5742998,40.2709999,0,32,0c-8.2709084,0-15,7.5742998-15,16.8838005
		c0,8.1149998,5.1142921,14.9074993,11.9045906,16.5181007L27.4760914,37.25
		c-0.1137009,0.3067017-0.0703011,0.6495018,0.1166992,0.9189987c0.1865005,0.2685013,0.4937,0.4286995,0.8208008,0.4286995
		h2.7290001c-0.0158005,0.0708008-0.0429001,0.1373024-0.0429001,0.2129021c0,1.0078011-0.7910995,2.0097008-1.6285,3.0713005
		c-1.0825005,1.3719978-2.3094997,2.9277-2.0135994,4.9032974c0.2534084,1.6885033,1.5472984,3.2900009,4.0731983,5.0371017
		c3.5518017,2.4570007,2.5879002,4.1815987,1.1289005,6.7919998C31.8925915,59.9873009,31.0996914,61.4062996,31.0996914,63
		c0,0.5527992,0.4477005,1,0.9999981,1c0.5522003,0,1-0.4472008,1-1c0-1.0732002,0.634201-2.2080002,1.3061028-3.410099
		c1.3964996-2.4990005,3.3090973-5.9219017-1.7373009-9.4121017c-1.9839001-1.3731003-3.0718002-2.6142998-3.2329006-3.6894989
		c-0.1674995-1.1190987,0.6938-2.2108994,1.6060009-3.3671989c0.964798-1.2226028,2.0580978-2.6093025,2.0580978-4.3105011
		c0-0.0755997-0.0270996-0.1421013-0.0429993-0.2129021h2.528801c0.3270988,0,0.6338005-0.1601982,0.8208008-0.4286995
		c0.1870003-0.2694969,0.2304993-0.6122971,0.1167068-0.9189987l-1.4279976-3.8479996
		C41.8854904,31.7917004,47,24.9990997,47,16.8838005z M33.0976906,33.767601l1.0498009,2.8300972h-4.2959003l1.0503006-2.8300972
		H33.0976906z M32,31.7675991c-7.1684093,0-13-6.6766987-13-14.8837986C19,8.6767998,24.8315907,2,32,2
		c7.1684914,0,13,6.6767998,13,14.8838005C45,25.0909004,39.1684914,31.7675991,32,31.7675991z"/>
	<path d="M40.2788925,11.5030003C39.5415916,8.75,37.680191,6.8916001,34.7465897,5.9766002
		c-0.5277977-0.1631002-1.0878983,0.1299-1.2518997,0.6571999c-0.1646004,0.5274,0.1299019,1.0879002,0.6571999,1.2529998
		c2.2671089,0.7060003,3.6392021,2.0585003,4.1953011,4.1337004c0.1195984,0.4473,0.5234985,0.7412996,0.9653015,0.7412996
		c0.0855064,0,0.1723976-0.0107994,0.2593002-0.0341997C40.1054916,12.585,40.4218903,12.0361996,40.2788925,11.5030003z"/>
</g>
<g>
</g>
<g>
</g>
<g>
</g>
<g>
</g>
<g>
</g>
<g>
</g>
<g>
</g>
<g>
</g>
<g>
</g>
<g>
</g>
<g>
</g>
<g>
</g>
<g>
</g>
<g>
</g>
<g>
</g>
</svg>
