<?xml version="1.0" encoding="iso-8859-1"?>
<!-- Generator: Adobe Illustrator 19.0.0, SVG Export Plug-In . SVG Version: 6.00 Build 0)  -->
<svg version="1.1" id="Layer_1" xmlns="http://www.w3.org/2000/svg" xmlns:xlink="http://www.w3.org/1999/xlink" x="0px" y="0px"
	 viewBox="0 0 490.724 490.724" style="enable-background:new 0 0 490.724 490.724;" xml:space="preserve">
<g>
	<g>
		<path d="M451.212,406.824h-19.9v-39.4c0-12.3-10-22.3-22.3-22.3h-151.1v-35h-25.3v35h-150.9c-12.3,0-22.3,10-22.3,22.3v39.4h-19.9
			c-12.4,0-22.4,10-22.4,22.4v39.1c0.1,12.4,10.1,22.4,22.4,22.4h65c12.4,0,22.4-10,22.4-22.4v-39.1c0-12.4-10-22.4-22.4-22.4h-19.8
			v-36.4h147.9v36.4h-19.7c-12.4,0-22.4,10-22.4,22.4v39.1c0,12.4,10,22.4,22.4,22.4h65c12.4,0,22.4-10,22.4-22.4v-39.1
			c0-12.4-10-22.4-22.4-22.4h-20.1v-36.4h148.3v36.4h-19.9c-12.4,0-22.4,10-22.4,22.4v39.1c0,12.4,10,22.4,22.4,22.4h65
			c12.4,0,22.4-10,22.4-22.4v-39.1C473.612,416.824,463.612,406.824,451.212,406.824z"/>
	</g>
</g>
<g>
	<g>
		<path d="M334.112,151.824c0,0-26-7.4-21.4-54.8c4.7-47.4-5.8-89-43.9-85.5c0,0-16.5-19.9-49.4-7.4c-11.3,4.3-41.6,15.1-40,80.8
			c1.5,65.7-23.3,66.1-23.3,66.1s12.8,18.7,56.4,18.3v12.3l33.1,96.7l33-96.5l-0.1-1v-11.9
			C278.512,168.924,316.212,170.124,334.112,151.824z"/>
	</g>
</g>
<g>
	<g>
		<path d="M366.612,274.724l-5.8-31.9c-2.2-11.9-9.9-22.1-20.7-27.5l-41.6-20.6c-2.4-1.2-4.7-2.5-7.1-3.8l13.1,38.8l-18.4-1.4
			l-40.6,49.8l-40.5-49.8l-18.4,1.4l13.4-38.8l-8.3,4.3l-40.7,20.1c-10.9,5.4-18.6,15.6-20.7,27.5l-5.8,31.9c-0.9,5.2,3.1,10,8.4,10
			h111.1h3.1h111.1C363.512,284.724,367.512,279.924,366.612,274.724z"/>
	</g>
</g>
<g>
</g>
<g>
</g>
<g>
</g>
<g>
</g>
<g>
</g>
<g>
</g>
<g>
</g>
<g>
</g>
<g>
</g>
<g>
</g>
<g>
</g>
<g>
</g>
<g>
</g>
<g>
</g>
<g>
</g>
</svg>
